<?xml version="1.0" standalone="no"?>
<!DOCTYPE svg PUBLIC "-//W3C//DTD SVG 20010904//EN"
 "http://www.w3.org/TR/2001/REC-SVG-20010904/DTD/svg10.dtd">
<svg version="1.0" xmlns="http://www.w3.org/2000/svg"
 width="367.000000pt" height="367.000000pt" viewBox="0 0 367.000000 367.000000"
 preserveAspectRatio="xMidYMid meet">
<metadata>
Created by potrace 1.14, written by Peter Selinger 2001-2017
</metadata>
<g transform="translate(0.000000,367.000000) scale(0.100000,-0.100000)"
fill="#000000" stroke="none">
<path d="M671 2940 c-77 -5 -85 -8 -107 -35 -13 -16 -29 -52 -35 -80 -18 -72
-20 -271 -4 -339 7 -31 11 -56 9 -56 -7 0 27 -62 41 -77 22 -21 64 -28 193
-32 33 0 51 -5 47 -11 -3 -5 -14 -10 -24 -10 -39 0 -66 -125 -58 -277 7 -154
24 -213 60 -213 11 0 18 -2 15 -5 -5 -5 -102 -10 -408 -20 -300 -10 -384 -15
-393 -24 -5 -5 -7 -19 -5 -32 3 -21 9 -24 53 -27 28 -2 54 -7 59 -12 10 -9 15
-297 7 -385 l-6 -59 -45 -2 c-73 -2 -72 -2 -68 -36 4 -39 -25 -36 425 -41
l348 -4 5 -29 c5 -30 8 -31 75 -33 l30 -1 0 -100 c1 -55 -2 -101 -5 -101 -3
-1 -21 -3 -41 -4 -42 -2 -59 -11 -59 -30 0 -8 -5 -17 -12 -21 -6 -4 -8 -3 -5
3 4 7 -3 10 -18 9 -24 -1 -37 -16 -13 -16 6 0 8 -3 4 -7 -4 -5 -13 -1 -19 8
-11 13 -80 22 -72 9 2 -3 -3 -10 -10 -17 -10 -10 -14 -9 -19 3 -3 9 -1 12 4 9
6 -3 10 -1 10 4 0 16 -14 13 -36 -7 -11 -10 -26 -17 -34 -15 -13 4 -13 3 0 -6
8 -5 18 -7 22 -5 4 3 8 -1 8 -8 0 -10 3 -9 9 1 8 12 12 12 25 2 15 -13 21 -8
16 14 -1 5 2 7 6 3 4 -4 13 0 21 10 13 15 13 15 4 -5 -15 -30 -16 -29 28 -28
22 0 37 3 34 8 -2 4 1 7 6 7 6 0 11 -4 11 -8 0 -5 7 -9 15 -9 10 0 14 6 10 16
-4 13 -2 12 9 -1 15 -21 36 -24 36 -5 0 7 3 8 8 2 10 -15 102 -16 102 -2 0 7
4 6 9 -2 8 -13 12 -13 27 0 15 12 16 12 9 0 -6 -11 -3 -13 13 -9 12 4 22 2 22
-4 0 -5 7 -2 16 6 17 18 28 21 19 6 -3 -6 5 -10 19 -10 13 0 27 6 29 13 4 9 6
9 6 0 1 -7 10 -13 22 -13 13 0 18 4 13 13 -6 9 -3 8 9 -1 9 -8 26 -13 39 -12
13 1 25 1 28 0 15 -5 49 -6 45 0 -5 8 81 4 95 -5 5 -3 10 -1 10 6 0 8 4 8 15
-1 8 -7 15 -9 15 -4 0 5 15 9 34 9 19 0 32 -3 29 -7 -2 -5 1 -8 6 -8 6 0 11 4
11 8 0 5 20 6 45 2 25 -4 45 -3 45 2 0 5 6 6 12 2 18 -11 62 -11 70 1 5 7 8 7
8 0 0 -6 36 -9 92 -8 51 0 269 4 483 8 215 3 435 8 490 10 55 2 192 6 305 10
294 8 330 11 346 32 36 49 43 229 11 290 -22 42 -47 46 -259 47 l-167 1 29 23
c22 17 36 43 52 95 41 131 26 373 -27 443 -8 10 -15 22 -15 25 0 3 53 6 118 8
105 2 289 8 335 10 12 1 17 9 17 30 0 33 -14 41 -68 41 l-37 0 1 173 c1 94 2
175 3 179 1 4 22 8 49 10 45 3 47 4 47 32 0 21 -6 30 -20 33 -23 5 -356 14
-575 16 l-145 2 -5 25 c-4 20 -12 25 -45 28 -22 2 -44 7 -48 12 -10 9 -13 406
-3 437 4 11 14 20 24 20 67 0 72 2 72 32 0 33 -11 37 -115 45 -119 10 -211 17
-270 23 -77 8 -1543 10 -1654 3z m179 -624 c0 -3 -4 -8 -10 -11 -5 -3 -10 -1
-10 4 0 6 5 11 10 11 6 0 10 -2 10 -4z m-147 -1480 c3 -8 0 -17 -7 -19 -10 -4
-12 1 -9 14 6 23 9 24 16 5z"/>
<path d="M550 850 c0 -5 5 -10 10 -10 6 0 10 5 10 10 0 6 -4 10 -10 10 -5 0
-10 -4 -10 -10z"/>
<path d="M420 836 c0 -2 8 -10 18 -17 15 -13 16 -12 3 4 -13 16 -21 21 -21 13z"/>
<path d="M516 824 c-11 -8 -16 -14 -10 -14 13 0 39 18 34 24 -3 2 -14 -2 -24
-10z"/>
</g>
</svg>
